inDegrees=no
num_controls=7
num_derivatives=13
num_iterations=123
num_multipliers=7
num_parameters=0
num_slacks=7
num_states=26
objective=5.761882
objective_accelerations=0.492402
objective_balance=0.039424
objective_effort=0.482513
objective_height=4.652379
objective_ligament=0.095164
solver_duration=1278.465086
status=Solve_Succeeded
success=true
DataType=double
version=3
OpenSimVersion=4.4-2022-07-23-0e9fedc
endheader
time	/jointset/ground_pelvis/pelvis_tilt/value	/jointset/ground_pelvis/pelvis_tx/value	/jointset/ground_pelvis/pelvis_ty/value	/jointset/hip_l/hip_flexion_l/value	/jointset/hip_l/hip_adduction_l/value	/jointset/hip_l/hip_rotation_l/value	/jointset/back/lumbar_extension/value	/jointset/patellofemoral_l/patellar_flexion_l/value	/jointset/knee_l/knee_flexion_l/value	/jointset/knee_l/knee_adduction_l/value	/jointset/knee_l/knee_rotation_l/value	/jointset/ankle_l/ankle_angle_l/value	/jointset/subtalar_l/subtalar_angle_l/value	/jointset/ground_pelvis/pelvis_tilt/speed	/jointset/ground_pelvis/pelvis_tx/speed	/jointset/ground_pelvis/pelvis_ty/speed	/jointset/hip_l/hip_flexion_l/speed	/jointset/hip_l/hip_adduction_l/speed	/jointset/hip_l/hip_rotation_l/speed	/jointset/back/lumbar_extension/speed	/jointset/patellofemoral_l/patellar_flexion_l/speed	/jointset/knee_l/knee_flexion_l/speed	/jointset/knee_l/knee_adduction_l/speed	/jointset/knee_l/knee_rotation_l/speed	/jointset/ankle_l/ankle_angle_l/speed	/jointset/subtalar_l/subtalar_angle_l/speed	/forceset/tau_hip_flexion_l	/forceset/tau_hip_adduction_l	/forceset/tau_hip_rotation_l	/forceset/tau_knee_flexion_l	/forceset/tau_ankle_angle_l	/forceset/tau_subtalar_angle_l	/forceset/tau_lumbar_extension	lambda_cid13_p0	lambda_cid13_p1	lambda_cid13_p2	lambda_cid13_p3	lambda_cid13_p4	lambda_cid13_p5	lambda_cid14_p0	/jointset/ground_pelvis/pelvis_tilt/accel	/jointset/ground_pelvis/pelvis_tx/accel	/jointset/ground_pelvis/pelvis_ty/accel	/jointset/hip_l/hip_flexion_l/accel	/jointset/hip_l/hip_adduction_l/accel	/jointset/hip_l/hip_rotation_l/accel	/jointset/back/lumbar_extension/accel	/jointset/patellofemoral_l/patellar_flexion_l/accel	/jointset/knee_l/knee_flexion_l/accel	/jointset/knee_l/knee_adduction_l/accel	/jointset/knee_l/knee_rotation_l/accel	/jointset/ankle_l/ankle_angle_l/accel	/jointset/subtalar_l/subtalar_angle_l/accel	gamma_cid13_p0	gamma_cid13_p1	gamma_cid13_p2	gamma_cid13_p3	gamma_cid13_p4	gamma_cid13_p5	gamma_cid14_p0
0.5	-0.1084673230596518	-0.0471594004698916	0.8149273003550671	0.9144485158511398	-0.328259440796745	-0.09675569474162941	-0.7859114556337379	0.8621215558005512	0.8621215558006047	-0.1085997908756704	-0.1745293134042992	0.1154563320343224	0.003147474261112359	-0.1689952500728293	-0.1786063656144308	-0.3802271186802481	1.555925907364752	-0.03683708638477858	0.5230821856520087	-0.83960441169399	1.627069577330009	1.627069577330091	0.133655070970176	9.262477623518239e-05	0.3478885439824852	0.0739009057487356	-0.2783509493170562	0.02588286646264825	-0.003794672386012736	-0.2285182890959816	0.09532666131777515	0.04415619230350572	0.3300516254249845	-13.78826638948327	-18.30895488828441	4.230711542750517	-8.982170050414824	-702.6359268335602	-72.35479189576398	-12.11645137305606	0.2817312451811357	0.6585585961446371	-0.1549849154051763	-1.477465461867396	0.2949303793629686	-0.4340352718246779	1.82490499884168	-1.28967317749614	-1.289673177496133	-0.2483163510516585	0.005586966954891988	-0.1505111595999445	0.2995276851562572	-1.913957455388981e-07	-2.868742619586812e-07	9.768787751585619e-07	6.979553891584754e-08	-2.095612602917888e-07	-9.74544330887595e-08	-1.675510223858617e-07
0.51	-0.1101429318493326	-0.04891249136977606	0.8111181292448575	0.9299314926121035	-0.3286138231816164	-0.09154627510139064	-0.7942153871974761	0.8783251079897113	0.878325107989713	-0.1072777377572174	-0.1745282524734852	0.1189267015926141	0.003900298892811135	-0.1661015397990694	-0.1720088283365382	-0.3815198796743371	1.540450188164524	-0.03404553147222882	0.518730009420409	-0.8210938387967109	1.613397083745275	1.613397083745391	0.1307511374386983	0.0001115743422164296	0.3461176568640421	0.07663837102275646	-0.2848030792314216	0.02632827364326797	-0.003989949351520619	-0.231455504878226	0.09454996808911109	0.04436901505590814	0.3363449868425363	-14.28355701160929	-18.26315554639421	4.164576631111804	-8.781259094736548	-706.92993734984	-72.15776637204496	-11.47949074678911	0.2969164631446894	0.6608167191183567	-0.1033811425047386	-1.615538899791856	0.2702197846017683	-0.4467289051857178	1.877342773849004	-1.44256968594706	-1.442569685941811	-0.3121045795201955	-0.0009371470141720527	-0.2005381563015184	0.2569188717084063	-1.942507714258303e-07	-1.874328212349754e-07	1.061216343085727e-06	8.971430101621247e-08	-2.065627285290002e-07	-6.595048757882319e-08	-1.661431734740546e-07
0.52	-0.1117888584273579	-0.05059951381177993	0.8072986386344876	0.9452531294309169	-0.3289404996698894	-0.08638256124473044	-0.8023315711645083	0.8943846287956394	0.8943846287955702	-0.1059848585191672	-0.1745271992666741	0.1223773301460534	0.004679710761886367	-0.1630588077384326	-0.1653926740383115	-0.3822910187122118	1.523657918936652	-0.03129590706364022	0.5139410289344821	-0.8020548923523044	1.598263300681136	1.598263300681287	0.1278202948942451	9.107997083997837e-05	0.3439403430121954	0.07921835322411379	-0.2912552091457808	0.02677368082388715	-0.004185226317253177	-0.2343927206604687	0.09377327486044218	0.04458183780830991	0.3426383482600938	-14.78156142476372	-18.21762810652971	4.099339346350456	-8.616836266279991	-711.2943176258226	-72.00790429217523	-10.84050033567573	0.3115356025565925	0.6622820002114271	-0.05066052416229488	-1.740775467396195	0.2865442785706679	-0.5213961226902046	1.930579708267198	-1.581931073377069	-1.581931073377113	-0.2536981536468046	-0.002301820516768778	-0.2317965062807073	0.2680310706234845	-1.820273359676096e-07	-1.194834819733959e-07	1.045571540281543e-06	9.396898018008989e-08	-1.894737388569826e-07	-3.443072182505993e-08	-1.555557647886552e-07
0.53	-0.1134036799141267	-0.05222031485307682	0.8034740491198179	0.9604004660774265	-0.3292398283642075	-0.08126864840175713	-0.8102548250434338	0.9102857216942007	0.9102857216941715	-0.104721387048302	-0.1745263219238478	0.1258042975000304	0.005484240782839543	-0.1598834545632663	-0.1587673172494854	-0.3825383258377147	1.505599008329111	-0.02857942299045996	0.5087799390766853	-0.7825219941222611	1.581726246635002	1.58172624663502	0.1248656185265118	8.080141232960656e-05	0.341395242927995	0.08166088651996736	-0.2973552155210675	0.02703482123689848	-0.004351058637245712	-0.2375911089837884	0.09331515574649787	0.04464678325496177	0.3486247052888714	-15.17649124962021	-18.11959941439983	4.018505461017999	-8.477635265561034	-715.5422573798155	-71.79855871946684	-10.20138606982305	0.3238223296710897	0.6627143046998124	0.001481851312677818	-1.870032389565887	0.2626231861432334	-0.5228439554662758	1.975728277061237	-1.723917430642492	-1.723917430662179	-0.3176013884024058	-0.0007235631287312596	-0.2745474634420944	0.2282417644393563	-1.697535713236406e-07	-6.845168411433876e-08	1.018435989218996e-06	9.529745512925889e-08	-1.729595525387649e-07	-7.149098270668587e-09	-1.456689568735884e-07
0.54	-0.1149860904382225	-0.05377485196918881	0.7996496360655043	0.9753608969114239	-0.32951230767491	-0.0762082221649939	-0.8179805332607234	0.926014579080216	0.9260145790802337	-0.103487712143097	-0.1745256139045324	0.1292040777123726	0.006312371597825442	-0.1565766152010939	-0.1521398890013297	-0.3822557266409497	1.486276756436271	-0.02592603033919985	0.5032437076932051	-0.7625457600246773	1.563816198172429	1.563816198172315	0.1218609817561386	5.721526939944173e-05	0.338502914685698	0.08393851203074307	-0.3034552218963661	0.02729596164987418	-0.004516890957090808	-0.2407894973071236	0.09285703663253808	0.04471172870156601	0.3546110623176468	-15.57501002679405	-18.02150526314188	3.938305074669314	-8.372428645250451	-719.8715286303847	-71.63356472022461	-9.564015189313391	0.3378328399578864	0.6626962920773245	0.05532074029129355	-1.99344372445614	0.2739259941866086	-0.5964244278269329	2.019246881775262	-1.856529956664814	-1.856529956664832	-0.2636902341748025	-0.004963337400839061	-0.3012421379000197	0.2350495136078593	-1.574241233252265e-07	-3.613716610488092e-08	9.785872698705992e-07	9.338842754300573e-08	-1.570813188673046e-07	1.544351689292823e-08	-1.365572817256982e-07
0.55	-0.1165348024111935	-0.05526317529396049	0.7958306910346451	0.9901219933283713	-0.3297584843182229	-0.07120498807011132	-0.8255043784029553	0.9415576690845113	0.9415576690845332	-0.1022841286098432	-0.1745251151483322	0.1325732795545553	0.007162567005394534	-0.1531440407182462	-0.145531152405544	-0.3814449740628003	1.465744209841022	-0.02331851133008523	0.4973438552130203	-0.7421632100654822	1.544586861792233	1.544586861792212	0.1188542215493764	4.257499891136014e-05	0.3352838271781617	0.08607508548242392	-0.309376651886443	0.0275068739406127	-0.004641877027662946	-0.2438457569181263	0.09209828494235499	0.04470428055553572	0.36036008629623	-16.06445617074654	-17.87376974529256	3.847585179711059	-8.111000431519399	-724.0137198835802	-71.40529792130688	-8.930062067849921	0.3492145729654861	0.6590243449165086	0.1071686527066746	-2.11292814088866	0.2526484423251191	-0.5957735350125984	2.056767806505231	-1.988350295477687	-1.98835029546365	-0.3193808198485364	0.0004814500946896199	-0.3402811473051145	0.1990294897685784	-1.474368653569236e-07	-2.911743453466321e-08	9.325653175643024e-07	8.841271743745057e-08	-1.444294988737073e-07	3.093059446600476e-08	-1.300400567772456e-07
0.5600000000000001	-0.1180485396752456	-0.05668559885245657	0.792022496756793	1.00467181067659	-0.3299788890538404	-0.06626255407541072	-0.8328225962948944	0.9569020227616551	0.9569020227616736	-0.1011106550598504	-0.17452472363042	0.1359086827036362	0.008033341793244097	-0.1495816734146853	-0.1389599357462089	-0.3801055760394598	1.444020942692607	-0.02077164879890709	0.4910836876568989	-0.7214203099657356	1.524068932740805	1.524068932740877	0.1158389851057468	3.576760712401285e-05	0.3317431760656373	0.08805438808692075	-0.315298081876528	0.02771778623132714	-0.004766863098351723	-0.2469020165291337	0.09133953325216207	0.04469683240947615	0.366109110274811	-16.55812371065972	-17.72577084827978	3.757367576342897	-7.880095454905604	-728.2437731072778	-71.21888009078093	-8.301049765274643	0.3637914041005939	0.6551923047872321	0.1610498293295156	-2.23158783508938	0.2617946985992754	-0.6684874430143147	2.091316909885607	-2.114248490911212	-2.114248490911182	-0.2653854815482926	-0.003396761660773033	-0.3655548588976275	0.2035953441710223	-1.402602354247537e-07	-5.245144669153264e-08	8.791354857085256e-07	7.975698830873308e-08	-1.356493752935457e-07	3.789102693045722e-08	-1.266361720681183e-07
0.5700000000000001	-0.1195260422455231	-0.05804253629043405	0.7882303376802295	1.018998564988504	-0.3301741325722268	-0.0613846878284129	-0.8399317221132192	0.9720348983926874	0.9720348983927396	-0.09996719873451085	-0.1745245034007262	0.139207144760728	0.008923136022299872	-0.1458999677258988	-0.1324372841187032	-0.378238192505038	1.421140846064892	-0.01828836803621839	0.4844302614385432	-0.7003588558444348	1.502303479972402	1.502303479972445	0.1128540707329909	7.949204750438771e-06	0.3279023746910335	0.08987826423666775	-0.3208664070884136	0.0278263568496978	-0.004858146206488631	-0.2500654023059725	0.09070754508056783	0.04455650152639422	0.3715147373433286	-17.00507122605797	-17.52260681854416	3.651918399948266	-7.619314318752383	-732.2676483876766	-70.95864349793145	-7.680093290292572	0.373176826829939	0.6493567235761127	0.2127634941825564	-2.344599696470185	0.2397833161170365	-0.6727770319043503	2.120459341531935	-2.238075751637122	-2.238075751641382	-0.314775693921828	-0.002354017326917202	-0.4003694201341784	0.1677656821200836	-1.312330006685849e-07	-5.518988567032886e-08	8.295384327053807e-07	7.367245491348151e-08	-1.250456019832315e-07	4.799931835294976e-08	-1.208344046750309e-07
0.58	-0.1209661644238124	-0.05933453618576741	0.7844594886147468	1.03309084251016	-0.3303449055727887	-0.05657515720773598	-0.846828853454677	0.9869440430796692	0.9869440430797577	-0.09885353780864253	-0.1745245372826057	0.1424657934753933	0.009830365399201421	-0.142105595014598	-0.1259724272173843	-0.3758435738232563	1.397125584642884	-0.01587754523297734	0.4774165623938557	-0.6790214145919424	1.479322743930706	1.47932274393072	0.1098799052089263	-1.505470966992743e-05	0.3237805075807325	0.0915414176561573	-0.3264347323003106	0.02793492746803395	-0.004949429314555959	-0.2532287880828215	0.09007555690896005	0.04441617064326691	0.3769203644118431	-17.45615937692217	-17.32110441174405	3.54946095136182	-7.391460851639034	-736.3743731184035	-70.74103400737722	-7.084402466688024	0.3863248086034815	0.6436333595498914	0.2664968588015006	-2.458620793948151	0.2473031067097288	-0.740542008280714	2.146514336123934	-2.357305145569792	-2.357305145569823	-0.2632357118100305	-0.002433864070183279	-0.4217680060370177	0.1714507981195171	-1.197956759090689e-07	-3.110618283582153e-08	7.849329056498497e-07	7.093645549669708e-08	-1.12066842977835e-07	6.220714702312213e-08	-1.119098133214375e-07
